# xmcd CD database file
#
# Track frame offsets:
#	150
#	12385
#	23296
#	35211
#	45734
#	57182
#	68891
#	78905
#	89524
#	98574
#	109569
#	120476
#	130178
#	139920
#	150393
#	160317
#	169269
#	179466
#	189446
#	198593
#	214658
#	225299
#	235127
#	248529
#	262548
#	272959
#	284813
#	295669
#	306007
#	316898
#
# Disc length: 4388 seconds
#
# Revision: 2
# Processed by: cddbd v1.5.2PL0 Copyright (c) Steve Scherf et al.
# Submitted via: CDex 2.00
#
DISCID=9511221e
DTITLE=Buck Owens - Greatest Hits
DYEAR=2005
DGENRE=Country
TTITLE0=Under Your Spell Again
TTITLE1=Above and Beyond
TTITLE2=Foolin' Around
TTITLE3=Under the Influence of Love
TTITLE4=Loose Talk
TTITLE5=Kickin' Our Hearts Around
TTITLE6=You're For Me
TTITLE7=Act Naturally
TTITLE8=Love's Gonna Live Here
TTITLE9=My Heart Skips a Beat
TTITLE10=Together Again
TTITLE11=I Don't Care (Just As Long As You Love Me)
TTITLE12=Before You Go
TTITLE13=Only You (Can Break My Heart)
TTITLE14=I've Got a Tiger by the Tail
TTITLE15=Buckaroo
TTITLE16=Think of Me
TTITLE17=How Long Will My Baby Be Gone
TTITLE18=It Takes People Like You (To Make People Like Me)
TTITLE19=Sweet Rosie Jones
TTITLE20=Who's Gonna Mow Your Grass
TTITLE21=Johnny B Goode
TTITLE22=Tall Dark Strangers
TTITLE23=Big in Vegas
TTITLE24=The Kansas City Song
TTITLE25=Bridge Over Troubled Water
TTITLE26=Ruby
TTITLE27=Rollin' In My Sweet Baby's Arms
TTITLE28=I'll Still Be Waiting For You
TTITLE29=Made In Japan
EXTD=Delta Music, Orpington, Kent, UK YEAR: 2005
EXTT0=
EXTT1=
EXTT2=
EXTT3=
EXTT4=
EXTT5=
EXTT6=
EXTT7=
EXTT8=
EXTT9=
EXTT10=
EXTT11=
EXTT12=
EXTT13=
EXTT14=
EXTT15=
EXTT16=
EXTT17=
EXTT18=
EXTT19=
EXTT20=
EXTT21=
EXTT22=
EXTT23=
EXTT24=
EXTT25=
EXTT26=
EXTT27=
EXTT28=
EXTT29=
PLAYORDER=
